HIERARCHY
ROOT Hips
{
	OFFSET 0.000000 0.000000 0.000000
	CHANNELS 6 Xposition Yposition Zposition Zrotation Yrotation Xrotation 
	JOINT LHipJoint
	{
		OFFSET 0.000000 0.000000 0.000000
		CHANNELS 3 Zrotation Yrotation Xrotation
		JOINT LeftUpLeg
		{
			OFFSET 1.363060 -1.794630 0.839290
			CHANNELS 3 Zrotation Yrotation Xrotation
			JOINT LeftLeg
			{
				OFFSET 2.448110 -6.726130 0.000000
				CHANNELS 3 Zrotation Yrotation Xrotation
				JOINT LeftFoot
				{
					OFFSET 2.562200 -7.039590 0.000000
					CHANNELS 3 Zrotation Yrotation Xrotation
					JOINT LeftToeBase
					{
						OFFSET 0.157640 -0.433110 2.322550
						CHANNELS 3 Zrotation Yrotation Xrotation
						End Site
						{
							OFFSET 0.000000 0.000000 0.000000
						}
					}
				}
			}
		}
	}
	JOINT RHipJoint
	{
		OFFSET 0.000000 0.000000 0.000000
		CHANNELS 3 Zrotation Yrotation Xrotation
		JOINT RightUpLeg
		{
			OFFSET -1.305520 -1.794630 0.839290
			CHANNELS 3 Zrotation Yrotation Xrotation
			JOINT RightLeg
			{
				OFFSET -2.542530 -6.985550 0.000000
				CHANNELS 3 Zrotation Yrotation Xrotation
				JOINT RightFoot
				{
					OFFSET -2.568260 -7.056230 0.000000
					CHANNELS 3 Zrotation Yrotation Xrotation
					JOINT RightToeBase
					{
						OFFSET -0.164730 -0.452590 2.363150
						CHANNELS 3 Zrotation Yrotation Xrotation
						End Site
						{
							OFFSET 0.000000 0.000000 0.000000
						}
					}
				}
			}
		}
	}
}
MOTION
Frames: 19
Frame Time: 0.008333
-1.314024 17.258148 -1.365655 0.105090 81.422246 12.368540 -10.132592 1.094134 -0.565040 -9.889456 2.689583 -7.994154 -2.333198 -0.685997 8.287078 0.923897 4.042431 -9.962345 -0.316800 0.000001 -28.683101 9.249081 0.540190 -0.844025 8.738645 -2.546052 -37.684206 1.485363 -2.296220 31.815493 -1.755175 -8.063416 -1.132522 -1.561800 -0.000000 -40.392100
-1.178401 17.237995 -1.347403 1.003713 81.565593 13.272262 -10.133747 1.143022 -0.651579 -9.969534 2.967944 -7.222421 -2.376901 -0.718377 7.839102 0.877875 3.672077 -10.121164 -0.321500 -0.000000 -28.976500 9.194574 0.593498 -0.682168 8.664041 -2.483793 -37.968493 1.638393 -2.080514 29.277987 -1.667615 -7.691085 -0.469646 -1.637800 0.000000 -40.927900
-1.042693 17.215519 -1.327619 2.090625 81.729053 14.360053 -10.128149 1.188191 -0.740510 -10.063765 3.203269 -6.445817 -2.419881 -0.748961 7.431975 0.837852 3.327634 -10.312366 -0.327800 0.000000 -29.301800 9.153812 0.648125 -0.524038 8.545152 -2.450044 -38.212025 1.793427 -1.856839 26.721217 -1.550739 -7.197225 0.230081 -1.683899 0.000000 -41.557100
-0.906759 17.190889 -1.306397 3.353843 81.910499 15.620632 -10.116251 1.229515 -0.831632 -10.168729 3.402186 -5.669198 -2.462185 -0.777702 7.069327 0.803256 3.005438 -10.536344 -0.335600 -0.000000 -29.672600 9.125921 0.705108 -0.367897 8.383054 -2.435452 -38.416345 1.948366 -1.625709 24.162409 -1.409468 -6.600458 0.942792 -1.695400 0.000000 -42.224800
-0.770546 17.164243 -1.283833 4.791635 82.105742 17.048956 -10.097814 1.266891 -0.926800 -10.282435 3.571777 -4.885929 -2.503574 -0.804533 6.745250 0.773728 2.705951 -10.785816 -0.344000 -0.000000 -30.100200 9.110202 0.766560 -0.215359 8.177716 -2.435237 -38.576923 2.100735 -1.388172 21.619254 -1.249374 -5.919252 1.639138 -1.668400 0.000000 -42.866000
-0.633950 17.135790 -1.259954 6.398885 82.312459 18.639142 -10.072722 1.300701 -1.026174 -10.402139 3.717646 -4.096550 -2.543808 -0.829090 6.458649 0.748697 2.428395 -11.052154 -0.352300 0.000000 -30.588700 9.105445 0.834110 -0.066760 7.930835 -2.445230 -38.693386 2.247926 -1.145175 19.107186 -1.076620 -5.173636 2.290417 -1.602600 -0.000000 -43.415200
-0.496805 17.105748 -1.234814 8.169694 82.528581 20.385895 -10.040704 1.331594 -1.129078 -10.525240 3.843497 -3.303786 -2.582600 -0.850957 6.209123 0.727692 2.172853 -11.326378 -0.360099 0.000000 -31.134300 9.110323 0.909098 0.077729 7.645649 -2.463439 -38.767709 2.387471 -0.897633 16.638297 -0.897178 -4.383089 2.871269 -1.500400 0.000000 -43.816900
-0.358864 17.074345 -1.208375 10.101602 82.753873 22.291224 -10.001660 1.360544 -1.233000 -10.648639 3.950226 -2.520199 -2.619855 -0.869385 6.003973 0.710168 1.938017 -11.602055 -0.366999 -0.000000 -31.724001 9.123433 0.992143 0.219729 7.327066 -2.488311 -38.807648 2.517125 -0.646044 14.218909 -0.716652 -3.568045 3.365364 -1.367900 0.000000 -44.037900
-0.219999 17.041843 -1.180695 12.191161 82.984988 24.351714 -9.954572 1.388324 -1.336709 -10.771847 4.032918 -1.741912 -2.654652 -0.884012 5.836497 0.696712 1.732737 -11.868626 -0.373300 -0.000000 -32.339400 9.144128 1.084463 0.357267 6.980016 -2.522574 -38.813987 2.634790 -0.391659 11.853772 -0.538843 -2.742422 3.765411 -1.211501 0.000000 -44.066700
-0.079983 17.008501 -1.151752 14.438145 83.221062 26.572841 -9.899282 1.416134 -1.436234 -10.893274 4.086006 -0.982018 -2.686718 -0.894168 5.713885 0.687535 1.560184 -12.123796 -0.379500 0.000000 -32.957001 9.171617 1.185873 0.491953 6.611536 -2.567558 -38.797289 2.738946 -0.135241 9.542946 -0.367048 -1.921803 4.076390 -1.039800 -0.000000 -43.924500
0.061373 16.974542 -1.121565 16.845097 83.458626 28.960391 -9.835299 1.445037 -1.528506 -11.013534 4.101114 -0.243842 -2.715504 -0.899526 5.635176 0.683511 1.428606 -12.365298 -0.386700 0.000001 -33.554700 9.205694 1.296477 0.622880 6.228676 -2.627738 -38.765377 2.828528 0.121364 7.289862 -0.202885 -1.115146 4.310651 -0.859800 0.000000 -43.653800
0.204334 16.940199 -1.090135 19.413057 83.695406 31.521475 -9.763202 1.476226 -1.609202 -11.132579 4.070348 0.460149 -2.740851 -0.899648 5.606944 0.685263 1.342193 -12.596624 -0.396100 0.000000 -34.113800 9.245859 1.415215 0.751669 5.838193 -2.703224 -38.730295 2.902854 0.376541 5.095546 -0.047927 -0.334808 4.490796 -0.679000 0.000001 -43.334100
0.349020 16.905642 -1.057562 22.137996 83.924968 34.253647 -9.683590 1.510741 -1.676056 -11.252401 3.987261 1.131106 -2.762382 -0.894554 5.624795 0.693879 1.308962 -12.819815 -0.409201 0.000000 -34.625301 9.291587 1.541444 0.876469 5.447551 -2.797179 -38.700814 2.962248 0.626969 2.973022 0.097841 0.416319 4.635425 -0.501000 -0.000000 -43.041800
0.495578 16.871016 -1.023910 25.004150 84.141167 37.143483 -9.598440 1.549451 -1.727056 -11.373089 3.849341 1.766050 -2.780004 -0.884254 5.687737 0.709903 1.331714 -13.039288 -0.427200 0.000000 -35.091700 9.341494 1.673504 0.997078 5.062531 -2.906675 -38.686179 3.007423 0.869384 0.938007 0.233868 1.131189 4.762569 -0.329400 0.000000 -42.859000
0.644020 16.836392 -0.989308 27.985384 84.335638 40.161248 -9.509790 1.592994 -1.762311 -11.496531 3.658539 2.374248 -2.793629 -0.869202 5.785300 0.733704 1.413038 -13.255456 -0.450799 0.000000 -35.528100 9.393557 1.810167 1.108440 4.694180 -3.039721 -38.699078 3.041744 1.097848 -0.966563 0.362217 1.823051 4.869100 -0.161900 0.000000 -42.834600
0.794429 16.801921 -0.953835 31.029849 84.503226 43.257388 -9.421821 1.641578 -1.781935 -11.619369 3.422967 2.950930 -2.803487 -0.849570 5.917727 0.764544 1.546236 -13.471250 -0.480000 -0.000000 -35.961600 9.444453 1.947891 1.213131 4.343978 -3.180668 -38.745723 3.066526 1.309919 -2.718711 0.480793 2.476778 4.957323 -0.003100 -0.000000 -43.017599
0.946782 16.767702 -0.917603 34.069672 84.638751 46.361187 -9.338357 1.694930 -1.788178 -11.738489 3.154854 3.502033 -2.809725 -0.825851 6.077243 0.801146 1.722901 -13.683426 -0.514200 -0.000000 -36.429600 9.490628 2.083451 1.309685 4.017142 -3.323567 -38.833496 3.084890 1.501329 -4.275065 0.589474 3.093323 5.007744 0.146100 0.000000 -43.405200
1.101011 16.733859 -0.880661 37.022650 84.739909 49.388852 -9.263335 1.752360 -1.784126 -11.848714 2.869864 4.030399 -2.812582 -0.798416 6.258514 0.841382 1.929911 -13.885572 -0.551700 0.000001 -36.974700 9.528618 2.212816 1.399020 3.714453 -3.454700 -38.965024 3.098878 1.669296 -5.600208 0.686654 3.663650 4.997391 0.281600 -0.000000 -43.968600
1.257119 16.700466 -0.842991 39.812362 84.807208 52.262500 -9.199829 1.813090 -1.773189 -11.943721 2.584699 4.538246 -2.812405 -0.767566 6.456750 0.882449 2.151157 -14.067644 -0.589900 0.000000 -37.638100 9.555967 2.331913 1.482494 3.434801 -3.560651 -39.141114 3.110006 1.811473 -6.660776 0.770557 4.177505 4.899220 0.398700 0.000000 -44.635400
